<?xml version="1.0" encoding="UTF-8"?>
<svg xmlns="http://www.w3.org/2000/svg" xmlns:xlink="http://www.w3.org/1999/xlink" viewBox="0 0 48 48" width="48px" height="48px">
<g id="surface91685879">
<path style=" stroke:none;fill-rule:nonzero;fill:rgb(27.058825%,39.607844%,92.941177%);fill-opacity:1;" d="M 15 2 C 12.238281 2 10 4.238281 10 7 L 10 12 C 10 13.101562 10.898438 14 12 14 C 13.101562 14 14 13.101562 14 12 L 14 8 L 34 8 L 34 12 C 34 13.101562 34.898438 14 36 14 C 37.101562 14 38 13.101562 38 12 L 38 7 C 38 4.238281 35.761719 2 33 2 Z M 13.960938 15.980469 C 13.441406 15.996094 12.949219 16.214844 12.585938 16.585938 L 6.585938 22.585938 C 5.804688 23.367188 5.804688 24.632812 6.585938 25.414062 L 12.585938 31.414062 C 13.085938 31.9375 13.832031 32.148438 14.535156 31.964844 C 15.234375 31.78125 15.78125 31.234375 15.964844 30.535156 C 16.148438 29.832031 15.9375 29.085938 15.414062 28.585938 L 10.828125 24 L 15.414062 19.414062 C 16.003906 18.839844 16.183594 17.960938 15.863281 17.199219 C 15.539062 16.441406 14.785156 15.957031 13.960938 15.980469 Z M 33.980469 15.980469 C 33.167969 15.980469 32.433594 16.472656 32.128906 17.226562 C 31.820312 17.980469 32.003906 18.847656 32.585938 19.414062 L 37.171875 24 L 32.585938 28.585938 C 32.0625 29.085938 31.851562 29.832031 32.035156 30.535156 C 32.21875 31.234375 32.765625 31.78125 33.464844 31.964844 C 34.167969 32.148438 34.914062 31.9375 35.414062 31.414062 L 41.414062 25.414062 C 42.195312 24.632812 42.195312 23.367188 41.414062 22.585938 L 35.414062 16.585938 C 35.039062 16.199219 34.519531 15.980469 33.980469 15.980469 Z M 12 34 C 10.898438 34 10 34.898438 10 36 L 10 41 C 10 43.761719 12.238281 46 15 46 L 33 46 C 35.761719 46 38 43.761719 38 41 L 38 36 C 38 34.898438 37.101562 34 36 34 C 34.898438 34 34 34.898438 34 36 L 34 40 L 14 40 L 14 36 C 14 34.898438 13.101562 34 12 34 Z M 12 34 "/>
</g>
</svg>
