<?xml version="1.0" encoding="UTF-8"?>
<svg xmlns="http://www.w3.org/2000/svg" xmlns:xlink="http://www.w3.org/1999/xlink" viewBox="0 0 30 30" width="30px" height="30px">
<g id="surface91533024">
<path style=" stroke:none;fill-rule:nonzero;fill:rgb(58.431375%,64.705884%,65.098041%);fill-opacity:1;" d="M 14.984375 9 C 14.722656 9.003906 14.476562 9.109375 14.292969 9.292969 L 4.292969 19.292969 C 4.03125 19.542969 3.925781 19.917969 4.019531 20.265625 C 4.109375 20.617188 4.382812 20.890625 4.734375 20.980469 C 5.082031 21.074219 5.457031 20.96875 5.707031 20.707031 L 15 11.414062 L 24.292969 20.707031 C 24.542969 20.96875 24.917969 21.074219 25.265625 20.980469 C 25.617188 20.890625 25.890625 20.617188 25.980469 20.265625 C 26.074219 19.917969 25.96875 19.542969 25.707031 19.292969 L 15.707031 9.292969 C 15.515625 9.101562 15.253906 8.996094 14.984375 9 Z M 14.984375 9 "/>
</g>
</svg>
