<?xml version="1.0" encoding="UTF-8"?>
<svg xmlns="http://www.w3.org/2000/svg" xmlns:xlink="http://www.w3.org/1999/xlink" viewBox="0 0 48 48" width="48px" height="48px">
<g id="surface92613517">
<path style=" stroke:none;fill-rule:nonzero;fill:rgb(58.431375%,64.705884%,65.098041%);fill-opacity:1;" d="M 35.546875 4.953125 C 35.027344 4.945312 34.542969 5.210938 34.265625 5.652344 L 23.5 21.347656 L 12.738281 5.652344 C 12.453125 5.226562 11.972656 4.972656 11.464844 4.984375 C 10.90625 4.992188 10.402344 5.308594 10.152344 5.804688 C 9.898438 6.300781 9.941406 6.894531 10.265625 7.347656 L 21.683594 24 L 10.265625 40.652344 C 9.933594 41.09375 9.875 41.679688 10.105469 42.179688 C 10.335938 42.675781 10.820312 43.011719 11.371094 43.046875 C 11.917969 43.082031 12.441406 42.8125 12.738281 42.347656 L 23.5 26.648438 L 34.265625 42.347656 C 34.558594 42.8125 35.082031 43.082031 35.628906 43.046875 C 36.179688 43.011719 36.664062 42.675781 36.894531 42.179688 C 37.125 41.679688 37.066406 41.09375 36.738281 40.652344 L 25.316406 24 L 36.738281 7.347656 C 37.074219 6.894531 37.128906 6.292969 36.878906 5.785156 C 36.625 5.277344 36.113281 4.957031 35.546875 4.953125 Z M 35.546875 4.953125 "/>
</g>
</svg>
