<?xml version="1.0" encoding="UTF-8"?>
<svg xmlns="http://www.w3.org/2000/svg" xmlns:xlink="http://www.w3.org/1999/xlink" viewBox="0 0 50 50" width="50px" height="50px">
<g id="surface87435682">
<path style=" stroke:none;fill-rule:nonzero;fill:rgb(100%,100%,100%);fill-opacity:1;" d="M 4 4 L 4 46 L 46 46 L 46 44 L 6 44 L 6 4 Z M 13 6 C 12.449219 6 12 6.449219 12 7 C 12 7.550781 12.449219 8 13 8 C 13.550781 8 14 7.550781 14 7 C 14 6.449219 13.550781 6 13 6 Z M 23 6 C 22.449219 6 22 6.449219 22 7 C 22 7.550781 22.449219 8 23 8 C 23.550781 8 24 7.550781 24 7 C 24 6.449219 23.550781 6 23 6 Z M 33 6 C 32.449219 6 32 6.449219 32 7 C 32 7.550781 32.449219 8 33 8 C 33.550781 8 34 7.550781 34 7 C 34 6.449219 33.550781 6 33 6 Z M 43 6 C 42.449219 6 42 6.449219 42 7 C 42 7.550781 42.449219 8 43 8 C 43.550781 8 44 7.550781 44 7 C 44 6.449219 43.550781 6 43 6 Z M 44.980469 13.988281 C 44.71875 13.996094 44.472656 14.105469 44.292969 14.292969 L 33 25.585938 L 23.707031 16.292969 C 23.316406 15.902344 22.683594 15.902344 22.292969 16.292969 L 8.292969 30.292969 C 8.03125 30.542969 7.925781 30.917969 8.019531 31.265625 C 8.109375 31.617188 8.382812 31.890625 8.734375 31.980469 C 9.082031 32.074219 9.457031 31.96875 9.707031 31.707031 L 23 18.414062 L 32.292969 27.707031 C 32.683594 28.097656 33.316406 28.097656 33.707031 27.707031 L 45.707031 15.707031 C 46.003906 15.417969 46.089844 14.980469 45.929688 14.601562 C 45.769531 14.21875 45.394531 13.976562 44.980469 13.988281 Z M 13 16 C 12.449219 16 12 16.449219 12 17 C 12 17.550781 12.449219 18 13 18 C 13.550781 18 14 17.550781 14 17 C 14 16.449219 13.550781 16 13 16 Z M 33 16 C 32.449219 16 32 16.449219 32 17 C 32 17.550781 32.449219 18 33 18 C 33.550781 18 34 17.550781 34 17 C 34 16.449219 33.550781 16 33 16 Z M 23 26 C 22.449219 26 22 26.449219 22 27 C 22 27.550781 22.449219 28 23 28 C 23.550781 28 24 27.550781 24 27 C 24 26.449219 23.550781 26 23 26 Z M 43 26 C 42.449219 26 42 26.449219 42 27 C 42 27.550781 42.449219 28 43 28 C 43.550781 28 44 27.550781 44 27 C 44 26.449219 43.550781 26 43 26 Z M 13 36 C 12.449219 36 12 36.449219 12 37 C 12 37.550781 12.449219 38 13 38 C 13.550781 38 14 37.550781 14 37 C 14 36.449219 13.550781 36 13 36 Z M 23 36 C 22.449219 36 22 36.449219 22 37 C 22 37.550781 22.449219 38 23 38 C 23.550781 38 24 37.550781 24 37 C 24 36.449219 23.550781 36 23 36 Z M 33 36 C 32.449219 36 32 36.449219 32 37 C 32 37.550781 32.449219 38 33 38 C 33.550781 38 34 37.550781 34 37 C 34 36.449219 33.550781 36 33 36 Z M 43 36 C 42.449219 36 42 36.449219 42 37 C 42 37.550781 42.449219 38 43 38 C 43.550781 38 44 37.550781 44 37 C 44 36.449219 43.550781 36 43 36 Z M 43 36 "/>
</g>
</svg>
