<?xml version="1.0" encoding="UTF-8"?>
<svg xmlns="http://www.w3.org/2000/svg" xmlns:xlink="http://www.w3.org/1999/xlink" viewBox="0 0 80 80" width="80px" height="80px">
<g id="surface91710220">
<path style=" stroke:none;fill-rule:nonzero;fill:rgb(27.058825%,39.607844%,92.941177%);fill-opacity:1;" d="M 39 8 L 39 10 L 6 10 C 4.90625 10 4 10.90625 4 12 L 4 16 C 4 17.09375 4.90625 18 6 18 L 7 18 L 7 53 C 5.90625 53 5 53.90625 5 55 L 5 58 C 5 59.09375 5.90625 60 7 60 L 39 60 L 39 60.433594 L 26.820312 69.179688 C 26.5625 69.0625 26.285156 69 26 69 C 24.894531 69 24 69.894531 24 71 C 24 72.105469 24.894531 73 26 73 C 27.105469 73 28 72.105469 28 71 C 28 70.933594 27.996094 70.871094 27.988281 70.804688 L 39 62.894531 L 39 66 L 41 66 L 41 62.988281 L 52.011719 70.8125 C 52.003906 70.875 52 70.9375 52 71 C 52 72.105469 52.894531 73 54 73 C 55.105469 73 56 72.105469 56 71 C 56 69.894531 55.105469 69 54 69 C 53.714844 69 53.429688 69.0625 53.167969 69.183594 L 41 60.539062 L 41 60 L 73 60 C 74.09375 60 75 59.09375 75 58 L 75 55 C 75 53.90625 74.09375 53 73 53 L 73 18 L 74 18 C 75.09375 18 76 17.09375 76 16 L 76 12 C 76 10.90625 75.09375 10 74 10 L 41 10 L 41 8 Z M 6 12 L 74 12 L 74 16 L 71 16 L 71 55 L 73 55 L 73 58 L 7 58 L 7 55 L 9 55 L 9 16 L 6 16 Z M 12 16 C 11.449219 16 11 16.449219 11 17 C 11 17.550781 11.449219 18 12 18 C 12.550781 18 13 17.550781 13 17 C 13 16.449219 12.550781 16 12 16 Z M 16 16 C 15.449219 16 15 16.449219 15 17 C 15 17.550781 15.449219 18 16 18 C 16.550781 18 17 17.550781 17 17 C 17 16.449219 16.550781 16 16 16 Z M 20 16 C 19.449219 16 19 16.449219 19 17 C 19 17.550781 19.449219 18 20 18 C 20.550781 18 21 17.550781 21 17 C 21 16.449219 20.550781 16 20 16 Z M 24 16 C 23.449219 16 23 16.449219 23 17 C 23 17.550781 23.449219 18 24 18 C 24.550781 18 25 17.550781 25 17 C 25 16.449219 24.550781 16 24 16 Z M 28 16 C 27.449219 16 27 16.449219 27 17 C 27 17.550781 27.449219 18 28 18 C 28.550781 18 29 17.550781 29 17 C 29 16.449219 28.550781 16 28 16 Z M 32 16 C 31.449219 16 31 16.449219 31 17 C 31 17.550781 31.449219 18 32 18 C 32.550781 18 33 17.550781 33 17 C 33 16.449219 32.550781 16 32 16 Z M 36 16 C 35.449219 16 35 16.449219 35 17 C 35 17.550781 35.449219 18 36 18 C 36.550781 18 37 17.550781 37 17 C 37 16.449219 36.550781 16 36 16 Z M 40 16 C 39.449219 16 39 16.449219 39 17 C 39 17.550781 39.449219 18 40 18 C 40.550781 18 41 17.550781 41 17 C 41 16.449219 40.550781 16 40 16 Z M 44 16 C 43.449219 16 43 16.449219 43 17 C 43 17.550781 43.449219 18 44 18 C 44.550781 18 45 17.550781 45 17 C 45 16.449219 44.550781 16 44 16 Z M 48 16 C 47.449219 16 47 16.449219 47 17 C 47 17.550781 47.449219 18 48 18 C 48.550781 18 49 17.550781 49 17 C 49 16.449219 48.550781 16 48 16 Z M 52 16 C 51.449219 16 51 16.449219 51 17 C 51 17.550781 51.449219 18 52 18 C 52.550781 18 53 17.550781 53 17 C 53 16.449219 52.550781 16 52 16 Z M 56 16 C 55.449219 16 55 16.449219 55 17 C 55 17.550781 55.449219 18 56 18 C 56.550781 18 57 17.550781 57 17 C 57 16.449219 56.550781 16 56 16 Z M 60 16 C 59.449219 16 59 16.449219 59 17 C 59 17.550781 59.449219 18 60 18 C 60.550781 18 61 17.550781 61 17 C 61 16.449219 60.550781 16 60 16 Z M 64 16 C 63.449219 16 63 16.449219 63 17 C 63 17.550781 63.449219 18 64 18 C 64.550781 18 65 17.550781 65 17 C 65 16.449219 64.550781 16 64 16 Z M 68 16 C 67.449219 16 67 16.449219 67 17 C 67 17.550781 67.449219 18 68 18 C 68.550781 18 69 17.550781 69 17 C 69 16.449219 68.550781 16 68 16 Z M 48 22 L 48 47 L 45 47 L 45 30 L 35 30 L 35 47 L 32 47 L 32 37 L 22 37 L 22 47 L 18 47 L 18 49 L 62 49 L 62 47 L 58 47 L 58 22 Z M 50 24 L 56 24 L 56 28 C 55.449219 28 55 28.449219 55 29 C 55 29.550781 55.449219 30 56 30 L 56 34 C 55.449219 34 55 34.449219 55 35 C 55 35.550781 55.449219 36 56 36 L 56 40 C 55.449219 40 55 40.449219 55 41 C 55 41.550781 55.449219 42 56 42 L 56 46 C 55.449219 46 55 46.449219 55 47 L 51 47 C 51 46.449219 50.550781 46 50 46 L 50 42 C 50.550781 42 51 41.550781 51 41 C 51 40.449219 50.550781 40 50 40 L 50 36 C 50.550781 36 51 35.550781 51 35 C 51 34.449219 50.550781 34 50 34 L 50 30 C 50.550781 30 51 29.550781 51 29 C 51 28.449219 50.550781 28 50 28 Z M 53 25 C 52.449219 25 52 25.449219 52 26 C 52 26.550781 52.449219 27 53 27 C 53.550781 27 54 26.550781 54 26 C 54 25.449219 53.550781 25 53 25 Z M 53 31 C 52.449219 31 52 31.449219 52 32 C 52 32.550781 52.449219 33 53 33 C 53.550781 33 54 32.550781 54 32 C 54 31.449219 53.550781 31 53 31 Z M 37 32 L 43 32 L 43 47 L 37 47 Z M 53 37 C 52.449219 37 52 37.449219 52 38 C 52 38.550781 52.449219 39 53 39 C 53.550781 39 54 38.550781 54 38 C 54 37.449219 53.550781 37 53 37 Z M 25 39 L 29 39 C 29 39.550781 29.449219 40 30 40 L 30 44 C 29.449219 44 29 44.449219 29 45 C 29 45.550781 29.449219 46 30 46 L 30 47 L 24 47 L 24 46 C 24.550781 46 25 45.550781 25 45 C 25 44.449219 24.550781 44 24 44 L 24 40 C 24.550781 40 25 39.550781 25 39 Z M 27 41 C 26.449219 41 26 41.449219 26 42 C 26 42.550781 26.449219 43 27 43 C 27.550781 43 28 42.550781 28 42 C 28 41.449219 27.550781 41 27 41 Z M 53 43 C 52.449219 43 52 43.449219 52 44 C 52 44.550781 52.449219 45 53 45 C 53.550781 45 54 44.550781 54 44 C 54 43.449219 53.550781 43 53 43 Z M 12 53 C 11.449219 53 11 53.449219 11 54 C 11 54.550781 11.449219 55 12 55 C 12.550781 55 13 54.550781 13 54 C 13 53.449219 12.550781 53 12 53 Z M 16 53 C 15.449219 53 15 53.449219 15 54 C 15 54.550781 15.449219 55 16 55 C 16.550781 55 17 54.550781 17 54 C 17 53.449219 16.550781 53 16 53 Z M 20 53 C 19.449219 53 19 53.449219 19 54 C 19 54.550781 19.449219 55 20 55 C 20.550781 55 21 54.550781 21 54 C 21 53.449219 20.550781 53 20 53 Z M 24 53 C 23.449219 53 23 53.449219 23 54 C 23 54.550781 23.449219 55 24 55 C 24.550781 55 25 54.550781 25 54 C 25 53.449219 24.550781 53 24 53 Z M 28 53 C 27.449219 53 27 53.449219 27 54 C 27 54.550781 27.449219 55 28 55 C 28.550781 55 29 54.550781 29 54 C 29 53.449219 28.550781 53 28 53 Z M 32 53 C 31.449219 53 31 53.449219 31 54 C 31 54.550781 31.449219 55 32 55 C 32.550781 55 33 54.550781 33 54 C 33 53.449219 32.550781 53 32 53 Z M 36 53 C 35.449219 53 35 53.449219 35 54 C 35 54.550781 35.449219 55 36 55 C 36.550781 55 37 54.550781 37 54 C 37 53.449219 36.550781 53 36 53 Z M 40 53 C 39.449219 53 39 53.449219 39 54 C 39 54.550781 39.449219 55 40 55 C 40.550781 55 41 54.550781 41 54 C 41 53.449219 40.550781 53 40 53 Z M 44 53 C 43.449219 53 43 53.449219 43 54 C 43 54.550781 43.449219 55 44 55 C 44.550781 55 45 54.550781 45 54 C 45 53.449219 44.550781 53 44 53 Z M 48 53 C 47.449219 53 47 53.449219 47 54 C 47 54.550781 47.449219 55 48 55 C 48.550781 55 49 54.550781 49 54 C 49 53.449219 48.550781 53 48 53 Z M 52 53 C 51.449219 53 51 53.449219 51 54 C 51 54.550781 51.449219 55 52 55 C 52.550781 55 53 54.550781 53 54 C 53 53.449219 52.550781 53 52 53 Z M 56 53 C 55.449219 53 55 53.449219 55 54 C 55 54.550781 55.449219 55 56 55 C 56.550781 55 57 54.550781 57 54 C 57 53.449219 56.550781 53 56 53 Z M 60 53 C 59.449219 53 59 53.449219 59 54 C 59 54.550781 59.449219 55 60 55 C 60.550781 55 61 54.550781 61 54 C 61 53.449219 60.550781 53 60 53 Z M 64 53 C 63.449219 53 63 53.449219 63 54 C 63 54.550781 63.449219 55 64 55 C 64.550781 55 65 54.550781 65 54 C 65 53.449219 64.550781 53 64 53 Z M 68 53 C 67.449219 53 67 53.449219 67 54 C 67 54.550781 67.449219 55 68 55 C 68.550781 55 69 54.550781 69 54 C 69 53.449219 68.550781 53 68 53 Z M 68 53 "/>
</g>
</svg>
