<?xml version="1.0" encoding="UTF-8"?>
<svg xmlns="http://www.w3.org/2000/svg" xmlns:xlink="http://www.w3.org/1999/xlink" viewBox="0 0 48 48" width="48px" height="48px">
<g id="surface91713726">
<path style=" stroke:none;fill-rule:nonzero;fill:rgb(27.058825%,39.607844%,92.941177%);fill-opacity:1;" d="M 35.289062 3.011719 C 35.105469 2.992188 34.914062 2.992188 34.722656 3.019531 C 34.347656 3.074219 33.976562 3.234375 33.675781 3.503906 L 29.847656 6.984375 C 29.847656 6.984375 29.84375 6.984375 29.84375 6.988281 L 27.5 6.988281 C 25.585938 6.988281 24 8.570312 24 10.488281 L 24 13.515625 C 24 15.429688 25.585938 17.015625 27.5 17.015625 L 29.84375 17.015625 C 29.84375 17.015625 29.847656 17.015625 29.847656 17.019531 L 33.675781 20.496094 C 34.273438 21.035156 35.164062 21.132812 35.816406 20.84375 C 36.472656 20.550781 37 19.828125 37 19.027344 L 37 4.976562 C 37 4.171875 36.472656 3.449219 35.816406 3.160156 C 35.65625 3.085938 35.476562 3.035156 35.289062 3.015625 Z M 41.089844 5.929688 C 40.535156 5.933594 40.023438 6.246094 39.769531 6.738281 C 39.515625 7.234375 39.554688 7.828125 39.871094 8.285156 C 40.585938 9.347656 41 10.59375 41 11.945312 C 41 13.296875 40.585938 14.546875 39.871094 15.609375 C 39.554688 16.050781 39.503906 16.632812 39.742188 17.121094 C 39.976562 17.613281 40.457031 17.941406 41 17.972656 C 41.542969 18.007812 42.0625 17.742188 42.359375 17.285156 C 43.390625 15.757812 44 13.914062 44 11.945312 C 44 9.976562 43.390625 8.136719 42.359375 6.605469 C 42.078125 6.179688 41.601562 5.921875 41.089844 5.925781 Z M 34 7.265625 L 34 16.734375 L 31.878906 14.808594 C 31.332031 14.300781 30.609375 14.011719 29.855469 14.011719 L 27.5 14.011719 C 27.203125 14.011719 27 13.808594 27 13.511719 L 27 10.484375 C 27 10.191406 27.203125 9.984375 27.5 9.984375 L 29.855469 9.984375 C 30.609375 9.984375 31.332031 9.699219 31.878906 9.1875 L 31.863281 9.203125 Z M 9 10 C 6.242188 10 4 12.242188 4 15 L 4 32 C 4 34.757812 6.242188 37 9 37 L 20 37 L 20 34 L 9 34 C 7.898438 34 7 33.101562 7 32 L 7 15 C 7 13.898438 7.898438 13 9 13 L 22 13 L 22 10 Z M 14.496094 18 C 14.234375 18 13.976562 18.066406 13.746094 18.203125 C 13.285156 18.46875 13 18.964844 13 19.5 L 13 27.5 C 13 28.035156 13.285156 28.53125 13.746094 28.796875 C 13.980469 28.933594 14.238281 29 14.5 29 C 14.757812 29 15.015625 28.933594 15.246094 28.804688 L 22.246094 24.804688 C 22.710938 24.535156 23 24.039062 23 23.5 C 23 22.960938 22.710938 22.464844 22.246094 22.199219 L 15.246094 18.199219 C 15.011719 18.0625 14.753906 18 14.496094 18 Z M 28 19.011719 L 28 26 L 31 26 L 31 20.765625 L 29.070312 19.011719 Z M 25.5 28 C 23.585938 28 22 29.585938 22 31.5 L 22 40.5 C 22 42.414062 23.585938 44 25.5 44 L 39.5 44 C 41.414062 44 43 42.414062 43 40.5 L 43 31.5 C 43 29.585938 41.414062 28 39.5 28 Z M 25.5 31 L 39.5 31 C 39.796875 31 40 31.203125 40 31.5 L 40 31.617188 L 32.5 35.78125 L 25 31.617188 L 25 31.5 C 25 31.203125 25.203125 31 25.5 31 Z M 25 35.046875 L 31.769531 38.808594 C 32.222656 39.0625 32.777344 39.0625 33.226562 38.808594 L 40 35.046875 L 40 40.5 C 40 40.796875 39.796875 41 39.5 41 L 25.5 41 C 25.203125 41 25 40.796875 25 40.5 Z M 25 35.046875 "/>
</g>
</svg>
