<?xml version="1.0" encoding="UTF-8"?>
<svg xmlns="http://www.w3.org/2000/svg" xmlns:xlink="http://www.w3.org/1999/xlink" viewBox="0 0 50 50" width="50px" height="50px">
<g id="surface89691683">
<path style=" stroke:none;fill-rule:nonzero;fill:rgb(100%,100%,100%);fill-opacity:1;" d="M 25 1 C 21.699219 1 19 3.800781 19 7.199219 L 19 9 L 17.898438 9 C 16.800781 9 16 9.898438 16 10.898438 L 16 21 C 16 22.101562 16.800781 23 17.898438 23 L 32.101562 23 C 33.101562 23 34 22.101562 34 21.101562 L 34 10.898438 C 34 9.898438 33.199219 9 32.101562 9 L 31 9 L 31 7.199219 C 31 3.800781 28.300781 1 25 1 Z M 25 3 C 27.199219 3 29 4.898438 29 7.199219 L 29 9 L 21 9 L 21 7.199219 C 21 4.898438 22.800781 3 25 3 Z M 9.992188 10.988281 C 9.582031 10.992188 9.21875 11.238281 9.0625 11.613281 C 8.910156 11.992188 9 12.421875 9.292969 12.707031 L 11.585938 15 L 9 15 C 5.699219 15 3 17.699219 3 21 L 3 27 C 2.996094 27.359375 3.183594 27.695312 3.496094 27.878906 C 3.808594 28.058594 4.191406 28.058594 4.503906 27.878906 C 4.816406 27.695312 5.003906 27.359375 5 27 L 5 21 C 5 18.78125 6.78125 17 9 17 L 11.585938 17 L 9.292969 19.292969 C 9.03125 19.542969 8.925781 19.917969 9.019531 20.265625 C 9.109375 20.617188 9.382812 20.890625 9.734375 20.980469 C 10.082031 21.074219 10.457031 20.96875 10.707031 20.707031 L 15.414062 16 L 10.707031 11.292969 C 10.519531 11.097656 10.261719 10.992188 9.988281 10.988281 Z M 18 11 L 32 11 L 32 21 L 18 21 Z M 25 14 C 24.199219 14 23.601562 14.601562 23.601562 15.398438 C 23.601562 15.800781 23.800781 16.101562 24.101562 16.398438 L 24.101562 17.699219 C 24.101562 18.199219 24.5 18.601562 25 18.601562 C 25.5 18.601562 25.898438 18.199219 25.898438 17.699219 L 25.898438 16.398438 C 26.199219 16.101562 26.398438 15.800781 26.398438 15.398438 C 26.398438 14.601562 25.800781 14 25 14 Z M 37 15 C 36.640625 14.996094 36.304688 15.183594 36.121094 15.496094 C 35.941406 15.808594 35.941406 16.191406 36.121094 16.503906 C 36.304688 16.816406 36.640625 17.003906 37 17 L 39 17 C 41.21875 17 43 18.78125 43 21 L 43 25.585938 L 40.707031 23.292969 C 40.519531 23.097656 40.261719 22.992188 39.992188 22.988281 C 39.582031 22.992188 39.21875 23.238281 39.0625 23.613281 C 38.910156 23.992188 39 24.421875 39.292969 24.707031 L 44 29.414062 L 48.707031 24.707031 C 48.96875 24.457031 49.074219 24.082031 48.980469 23.734375 C 48.890625 23.382812 48.617188 23.109375 48.265625 23.019531 C 47.917969 22.925781 47.542969 23.03125 47.292969 23.292969 L 45 25.585938 L 45 21 C 45 17.699219 42.300781 15 39 15 Z M 38.464844 28.972656 C 38.253906 28.976562 38.050781 29.050781 37.886719 29.179688 L 28.386719 36.59375 C 28.09375 36.808594 27.941406 37.167969 27.988281 37.527344 C 28.035156 37.886719 28.277344 38.195312 28.613281 38.328125 C 28.949219 38.460938 29.335938 38.402344 29.613281 38.167969 L 30 37.867188 L 30 48 C 30 48.550781 30.449219 49 31 49 L 35.832031 49 C 35.941406 49.019531 36.050781 49.019531 36.160156 49 L 40.832031 49 C 40.941406 49.019531 41.050781 49.019531 41.160156 49 L 46 49 C 46.550781 49 47 48.550781 47 48 L 47 37.867188 L 47.386719 38.167969 C 47.664062 38.402344 48.050781 38.460938 48.386719 38.328125 C 48.722656 38.195312 48.964844 37.886719 49.011719 37.527344 C 49.058594 37.167969 48.90625 36.808594 48.613281 36.59375 L 39.113281 29.179688 C 38.929688 29.035156 38.699219 28.960938 38.460938 28.972656 Z M 11 29 C 5.5 29 1 33.5 1 39 C 1 44.5 5.5 49 11 49 C 16.5 49 21 44.5 21 39 C 21 33.5 16.5 29 11 29 Z M 11 31 C 15.398438 31 19 34.601562 19 39 C 19 43.398438 15.398438 47 11 47 C 6.601562 47 3 43.398438 3 39 C 3 34.601562 6.601562 31 11 31 Z M 38.5 31.238281 L 45 36.308594 L 45 47 L 42 47 L 42 39 L 35 39 L 35 47 L 32 47 L 32 36.308594 Z M 10.699219 32.398438 L 10.699219 33.898438 C 9.800781 33.898438 7.898438 34.601562 7.898438 36.699219 C 7.898438 40.199219 12.398438 39.300781 12.398438 41.5 C 12.398438 41.699219 12.398438 42.699219 11.101562 42.699219 C 9.601562 42.699219 9.601562 41.300781 9.601562 41 L 7.601562 41 C 7.601562 44 10.199219 44.300781 10.601562 44.300781 L 10.601562 45.699219 L 11.699219 45.699219 L 11.699219 44.300781 C 12.101562 44.300781 14.5 44 14.5 41.5 C 14.5 38 10 38.800781 10 36.699219 C 10 36.5 10 35.5 11.101562 35.398438 C 12.300781 35.398438 12.398438 36.5 12.398438 37.101562 L 14.398438 37.101562 C 14.398438 34.5 12.5 34 11.800781 33.898438 L 11.800781 32.398438 Z M 37 41 L 40 41 L 40 47 L 37 47 Z M 37 41 "/>
</g>
</svg>
