<?xml version="1.0" encoding="UTF-8"?>
<svg xmlns="http://www.w3.org/2000/svg" xmlns:xlink="http://www.w3.org/1999/xlink" viewBox="0 0 24 24" width="24px" height="24px">
<g id="surface91701189">
<path style=" stroke:none;fill-rule:nonzero;fill:rgb(27.058825%,39.607844%,92.941177%);fill-opacity:1;" d="M 12 2.101562 C 7.808594 2.101562 4.234375 4.714844 2.792969 8.398438 L 2.699219 8.398438 C 2.207031 8.398438 1.800781 8.808594 1.800781 9.300781 L 1.800781 14.699219 C 1.800781 15.191406 2.207031 15.601562 2.699219 15.601562 L 2.792969 15.601562 C 4.234375 19.285156 7.808594 21.898438 12 21.898438 C 16.191406 21.898438 19.765625 19.285156 21.207031 15.601562 L 21.300781 15.601562 C 21.792969 15.601562 22.199219 15.191406 22.199219 14.699219 L 22.199219 9.300781 C 22.199219 8.808594 21.792969 8.398438 21.300781 8.398438 L 21.207031 8.398438 C 19.765625 4.714844 16.191406 2.101562 12 2.101562 Z M 12 2.699219 C 11.835938 2.699219 11.699219 2.835938 11.699219 3 C 11.699219 3.164062 11.835938 3.300781 12 3.300781 C 12.164062 3.300781 12.300781 3.164062 12.300781 3 C 12.300781 2.84375 12.179688 2.714844 12.023438 2.703125 C 15.875 2.710938 19.15625 5.0625 20.5625 8.398438 L 3.441406 8.398438 C 4.847656 5.054688 8.140625 2.699219 12 2.699219 Z M 9.898438 3 C 9.734375 3 9.601562 3.132812 9.601562 3.300781 C 9.601562 3.464844 9.734375 3.601562 9.898438 3.601562 C 10.066406 3.601562 10.199219 3.464844 10.199219 3.300781 C 10.199219 3.132812 10.066406 3 9.898438 3 Z M 14.101562 3 C 13.933594 3 13.800781 3.132812 13.800781 3.300781 C 13.800781 3.464844 13.933594 3.601562 14.101562 3.601562 C 14.265625 3.601562 14.398438 3.464844 14.398438 3.300781 C 14.398438 3.132812 14.265625 3 14.101562 3 Z M 9 3.898438 C 8.835938 3.898438 8.699219 4.035156 8.699219 4.199219 C 8.699219 4.367188 8.835938 4.5 9 4.5 C 9.164062 4.5 9.300781 4.367188 9.300781 4.199219 C 9.300781 4.035156 9.164062 3.898438 9 3.898438 Z M 12 3.898438 C 11.835938 3.898438 11.699219 4.035156 11.699219 4.199219 C 11.699219 4.367188 11.835938 4.5 12 4.5 C 12.164062 4.5 12.300781 4.367188 12.300781 4.199219 C 12.300781 4.035156 12.164062 3.898438 12 3.898438 Z M 15 3.898438 C 14.835938 3.898438 14.699219 4.035156 14.699219 4.199219 C 14.699219 4.367188 14.835938 4.5 15 4.5 C 15.164062 4.5 15.300781 4.367188 15.300781 4.199219 C 15.300781 4.035156 15.164062 3.898438 15 3.898438 Z M 6 5.101562 C 5.835938 5.101562 5.699219 5.234375 5.699219 5.398438 C 5.699219 5.566406 5.835938 5.699219 6 5.699219 C 6.164062 5.699219 6.300781 5.566406 6.300781 5.398438 C 6.300781 5.234375 6.164062 5.101562 6 5.101562 Z M 7.199219 5.101562 C 7.035156 5.101562 6.898438 5.234375 6.898438 5.398438 C 6.898438 5.566406 7.035156 5.699219 7.199219 5.699219 C 7.367188 5.699219 7.5 5.566406 7.5 5.398438 C 7.5 5.234375 7.367188 5.101562 7.199219 5.101562 Z M 8.398438 5.101562 C 8.234375 5.101562 8.101562 5.234375 8.101562 5.398438 C 8.101562 5.566406 8.234375 5.699219 8.398438 5.699219 C 8.566406 5.699219 8.699219 5.566406 8.699219 5.398438 C 8.699219 5.234375 8.566406 5.101562 8.398438 5.101562 Z M 9.601562 5.101562 C 9.433594 5.101562 9.300781 5.234375 9.300781 5.398438 C 9.300781 5.566406 9.433594 5.699219 9.601562 5.699219 C 9.765625 5.699219 9.898438 5.566406 9.898438 5.398438 C 9.898438 5.234375 9.765625 5.101562 9.601562 5.101562 Z M 10.800781 5.101562 C 10.632812 5.101562 10.5 5.234375 10.5 5.398438 C 10.5 5.566406 10.632812 5.699219 10.800781 5.699219 C 10.964844 5.699219 11.101562 5.566406 11.101562 5.398438 C 11.101562 5.234375 10.964844 5.101562 10.800781 5.101562 Z M 12 5.101562 C 11.84375 5.101562 11.710938 5.222656 11.699219 5.378906 C 11.699219 5.386719 11.699219 5.394531 11.699219 5.398438 C 11.699219 5.558594 11.820312 5.6875 11.980469 5.699219 C 11.984375 5.699219 11.992188 5.699219 12 5.699219 C 12.164062 5.699219 12.300781 5.566406 12.300781 5.398438 C 12.300781 5.234375 12.164062 5.101562 12 5.101562 Z M 13.199219 5.101562 C 13.035156 5.101562 12.898438 5.234375 12.898438 5.398438 C 12.898438 5.566406 13.035156 5.699219 13.199219 5.699219 C 13.367188 5.699219 13.5 5.566406 13.5 5.398438 C 13.5 5.234375 13.367188 5.101562 13.199219 5.101562 Z M 14.398438 5.101562 C 14.234375 5.101562 14.101562 5.234375 14.101562 5.398438 C 14.101562 5.566406 14.234375 5.699219 14.398438 5.699219 C 14.566406 5.699219 14.699219 5.566406 14.699219 5.398438 C 14.699219 5.234375 14.566406 5.101562 14.398438 5.101562 Z M 15.601562 5.101562 C 15.433594 5.101562 15.300781 5.234375 15.300781 5.398438 C 15.300781 5.566406 15.433594 5.699219 15.601562 5.699219 C 15.765625 5.699219 15.898438 5.566406 15.898438 5.398438 C 15.898438 5.234375 15.765625 5.101562 15.601562 5.101562 Z M 16.800781 5.101562 C 16.632812 5.101562 16.5 5.234375 16.5 5.398438 C 16.5 5.566406 16.632812 5.699219 16.800781 5.699219 C 16.964844 5.699219 17.101562 5.566406 17.101562 5.398438 C 17.101562 5.234375 16.964844 5.101562 16.800781 5.101562 Z M 18 5.101562 C 17.835938 5.101562 17.699219 5.234375 17.699219 5.398438 C 17.699219 5.566406 17.835938 5.699219 18 5.699219 C 18.164062 5.699219 18.300781 5.566406 18.300781 5.398438 C 18.300781 5.234375 18.164062 5.101562 18 5.101562 Z M 7.800781 6.300781 C 7.632812 6.300781 7.5 6.433594 7.5 6.601562 C 7.5 6.765625 7.632812 6.898438 7.800781 6.898438 C 7.964844 6.898438 8.101562 6.765625 8.101562 6.601562 C 8.101562 6.433594 7.964844 6.300781 7.800781 6.300781 Z M 12 6.300781 C 11.835938 6.300781 11.699219 6.433594 11.699219 6.601562 C 11.699219 6.765625 11.835938 6.898438 12 6.898438 C 12.164062 6.898438 12.300781 6.765625 12.300781 6.601562 C 12.300781 6.433594 12.164062 6.300781 12 6.300781 Z M 16.199219 6.300781 C 16.035156 6.300781 15.898438 6.433594 15.898438 6.601562 C 15.898438 6.765625 16.035156 6.898438 16.199219 6.898438 C 16.367188 6.898438 16.5 6.765625 16.5 6.601562 C 16.5 6.433594 16.367188 6.300781 16.199219 6.300781 Z M 7.5 7.5 C 7.335938 7.5 7.199219 7.632812 7.199219 7.800781 C 7.199219 7.964844 7.335938 8.101562 7.5 8.101562 C 7.664062 8.101562 7.800781 7.964844 7.800781 7.800781 C 7.800781 7.632812 7.664062 7.5 7.5 7.5 Z M 12 7.5 C 11.835938 7.5 11.699219 7.632812 11.699219 7.800781 C 11.699219 7.964844 11.835938 8.101562 12 8.101562 C 12.164062 8.101562 12.300781 7.964844 12.300781 7.800781 C 12.300781 7.632812 12.164062 7.5 12 7.5 Z M 16.5 7.5 C 16.335938 7.5 16.199219 7.632812 16.199219 7.800781 C 16.199219 7.964844 16.335938 8.101562 16.5 8.101562 C 16.664062 8.101562 16.800781 7.964844 16.800781 7.800781 C 16.800781 7.632812 16.664062 7.5 16.5 7.5 Z M 2.699219 9 L 21.300781 9 C 21.46875 9 21.601562 9.128906 21.601562 9.300781 L 21.601562 14.699219 C 21.601562 14.871094 21.46875 15 21.300781 15 L 2.699219 15 C 2.53125 15 2.398438 14.871094 2.398438 14.699219 L 2.398438 9.300781 C 2.398438 9.128906 2.53125 9 2.699219 9 Z M 4.5 10.5 L 5.402344 13.5 L 5.96875 13.5 L 6.648438 11.375 L 6.679688 11.375 L 7.367188 13.5 L 7.929688 13.5 L 8.832031 10.5 L 8.207031 10.5 L 7.632812 12.730469 L 7.601562 12.730469 L 6.929688 10.5 L 6.398438 10.5 L 5.734375 12.730469 L 5.703125 12.730469 L 5.128906 10.5 Z M 9.835938 10.5 L 10.734375 13.5 L 11.300781 13.5 L 11.980469 11.375 L 12.015625 11.375 L 12.699219 13.5 L 13.265625 13.5 L 14.164062 10.5 L 13.542969 10.5 L 12.96875 12.730469 L 12.9375 12.730469 L 12.265625 10.5 L 11.734375 10.5 L 11.070312 12.730469 L 11.035156 12.730469 L 10.460938 10.5 Z M 15.167969 10.5 L 16.070312 13.5 L 16.636719 13.5 L 17.316406 11.375 L 17.351562 11.375 L 18.035156 13.5 L 18.597656 13.5 L 19.5 10.5 L 18.878906 10.5 L 18.304688 12.730469 L 18.273438 12.730469 L 17.601562 10.5 L 17.066406 10.5 L 16.40625 12.730469 L 16.371094 12.730469 L 15.796875 10.5 Z M 9.300781 12.898438 C 9.132812 12.898438 9 13.035156 9 13.199219 C 9 13.367188 9.132812 13.5 9.300781 13.5 C 9.464844 13.5 9.601562 13.367188 9.601562 13.199219 C 9.601562 13.035156 9.464844 12.898438 9.300781 12.898438 Z M 14.699219 12.898438 C 14.535156 12.898438 14.398438 13.035156 14.398438 13.199219 C 14.398438 13.367188 14.535156 13.5 14.699219 13.5 C 14.867188 13.5 15 13.367188 15 13.199219 C 15 13.035156 14.867188 12.898438 14.699219 12.898438 Z M 3.4375 15.601562 L 20.558594 15.601562 C 19.152344 18.945312 15.859375 21.300781 12 21.300781 C 12.164062 21.300781 12.300781 21.164062 12.300781 21 C 12.300781 20.835938 12.164062 20.699219 12 20.699219 C 11.835938 20.699219 11.699219 20.835938 11.699219 21 C 11.699219 21.15625 11.820312 21.285156 11.976562 21.296875 C 8.125 21.289062 4.84375 18.9375 3.4375 15.601562 Z M 7.5 15.898438 C 7.335938 15.898438 7.199219 16.035156 7.199219 16.199219 C 7.199219 16.367188 7.335938 16.5 7.5 16.5 C 7.664062 16.5 7.800781 16.367188 7.800781 16.199219 C 7.800781 16.035156 7.664062 15.898438 7.5 15.898438 Z M 12 15.898438 C 11.835938 15.898438 11.699219 16.035156 11.699219 16.199219 C 11.699219 16.367188 11.835938 16.5 12 16.5 C 12.164062 16.5 12.300781 16.367188 12.300781 16.199219 C 12.300781 16.035156 12.164062 15.898438 12 15.898438 Z M 16.5 15.898438 C 16.335938 15.898438 16.199219 16.035156 16.199219 16.199219 C 16.199219 16.367188 16.335938 16.5 16.5 16.5 C 16.664062 16.5 16.800781 16.367188 16.800781 16.199219 C 16.800781 16.035156 16.664062 15.898438 16.5 15.898438 Z M 7.800781 17.101562 C 7.632812 17.101562 7.5 17.234375 7.5 17.398438 C 7.5 17.566406 7.632812 17.699219 7.800781 17.699219 C 7.964844 17.699219 8.101562 17.566406 8.101562 17.398438 C 8.101562 17.234375 7.964844 17.101562 7.800781 17.101562 Z M 12 17.101562 C 11.835938 17.101562 11.699219 17.234375 11.699219 17.398438 C 11.699219 17.566406 11.835938 17.699219 12 17.699219 C 12.164062 17.699219 12.300781 17.566406 12.300781 17.398438 C 12.300781 17.234375 12.164062 17.101562 12 17.101562 Z M 16.199219 17.101562 C 16.035156 17.101562 15.898438 17.234375 15.898438 17.398438 C 15.898438 17.566406 16.035156 17.699219 16.199219 17.699219 C 16.367188 17.699219 16.5 17.566406 16.5 17.398438 C 16.5 17.234375 16.367188 17.101562 16.199219 17.101562 Z M 6 18.300781 C 5.835938 18.300781 5.699219 18.433594 5.699219 18.601562 C 5.699219 18.765625 5.835938 18.898438 6 18.898438 C 6.164062 18.898438 6.300781 18.765625 6.300781 18.601562 C 6.300781 18.433594 6.164062 18.300781 6 18.300781 Z M 7.199219 18.300781 C 7.035156 18.300781 6.898438 18.433594 6.898438 18.601562 C 6.898438 18.765625 7.035156 18.898438 7.199219 18.898438 C 7.367188 18.898438 7.5 18.765625 7.5 18.601562 C 7.5 18.433594 7.367188 18.300781 7.199219 18.300781 Z M 8.398438 18.300781 C 8.234375 18.300781 8.101562 18.433594 8.101562 18.601562 C 8.101562 18.765625 8.234375 18.898438 8.398438 18.898438 C 8.566406 18.898438 8.699219 18.765625 8.699219 18.601562 C 8.699219 18.433594 8.566406 18.300781 8.398438 18.300781 Z M 9.601562 18.300781 C 9.433594 18.300781 9.300781 18.433594 9.300781 18.601562 C 9.300781 18.765625 9.433594 18.898438 9.601562 18.898438 C 9.765625 18.898438 9.898438 18.765625 9.898438 18.601562 C 9.898438 18.433594 9.765625 18.300781 9.601562 18.300781 Z M 10.800781 18.300781 C 10.632812 18.300781 10.5 18.433594 10.5 18.601562 C 10.5 18.765625 10.632812 18.898438 10.800781 18.898438 C 10.964844 18.898438 11.101562 18.765625 11.101562 18.601562 C 11.101562 18.433594 10.964844 18.300781 10.800781 18.300781 Z M 12 18.300781 C 11.84375 18.300781 11.710938 18.421875 11.699219 18.578125 C 11.699219 18.585938 11.699219 18.59375 11.699219 18.601562 C 11.699219 18.757812 11.820312 18.886719 11.980469 18.898438 C 11.984375 18.898438 11.992188 18.898438 12 18.898438 C 12.164062 18.898438 12.300781 18.765625 12.300781 18.601562 C 12.300781 18.433594 12.164062 18.300781 12 18.300781 Z M 13.199219 18.300781 C 13.035156 18.300781 12.898438 18.433594 12.898438 18.601562 C 12.898438 18.765625 13.035156 18.898438 13.199219 18.898438 C 13.367188 18.898438 13.5 18.765625 13.5 18.601562 C 13.5 18.433594 13.367188 18.300781 13.199219 18.300781 Z M 14.398438 18.300781 C 14.234375 18.300781 14.101562 18.433594 14.101562 18.601562 C 14.101562 18.765625 14.234375 18.898438 14.398438 18.898438 C 14.566406 18.898438 14.699219 18.765625 14.699219 18.601562 C 14.699219 18.433594 14.566406 18.300781 14.398438 18.300781 Z M 15.601562 18.300781 C 15.433594 18.300781 15.300781 18.433594 15.300781 18.601562 C 15.300781 18.765625 15.433594 18.898438 15.601562 18.898438 C 15.765625 18.898438 15.898438 18.765625 15.898438 18.601562 C 15.898438 18.433594 15.765625 18.300781 15.601562 18.300781 Z M 16.800781 18.300781 C 16.632812 18.300781 16.5 18.433594 16.5 18.601562 C 16.5 18.765625 16.632812 18.898438 16.800781 18.898438 C 16.964844 18.898438 17.101562 18.765625 17.101562 18.601562 C 17.101562 18.433594 16.964844 18.300781 16.800781 18.300781 Z M 18 18.300781 C 17.835938 18.300781 17.699219 18.433594 17.699219 18.601562 C 17.699219 18.765625 17.835938 18.898438 18 18.898438 C 18.164062 18.898438 18.300781 18.765625 18.300781 18.601562 C 18.300781 18.433594 18.164062 18.300781 18 18.300781 Z M 9 19.5 C 8.835938 19.5 8.699219 19.632812 8.699219 19.800781 C 8.699219 19.964844 8.835938 20.101562 9 20.101562 C 9.164062 20.101562 9.300781 19.964844 9.300781 19.800781 C 9.300781 19.632812 9.164062 19.5 9 19.5 Z M 12 19.5 C 11.835938 19.5 11.699219 19.632812 11.699219 19.800781 C 11.699219 19.964844 11.835938 20.101562 12 20.101562 C 12.164062 20.101562 12.300781 19.964844 12.300781 19.800781 C 12.300781 19.632812 12.164062 19.5 12 19.5 Z M 15 19.5 C 14.835938 19.5 14.699219 19.632812 14.699219 19.800781 C 14.699219 19.964844 14.835938 20.101562 15 20.101562 C 15.164062 20.101562 15.300781 19.964844 15.300781 19.800781 C 15.300781 19.632812 15.164062 19.5 15 19.5 Z M 9.898438 20.398438 C 9.734375 20.398438 9.601562 20.535156 9.601562 20.699219 C 9.601562 20.867188 9.734375 21 9.898438 21 C 10.066406 21 10.199219 20.867188 10.199219 20.699219 C 10.199219 20.535156 10.066406 20.398438 9.898438 20.398438 Z M 14.101562 20.398438 C 13.933594 20.398438 13.800781 20.535156 13.800781 20.699219 C 13.800781 20.867188 13.933594 21 14.101562 21 C 14.265625 21 14.398438 20.867188 14.398438 20.699219 C 14.398438 20.535156 14.265625 20.398438 14.101562 20.398438 Z M 14.101562 20.398438 "/>
</g>
</svg>
